<?xml version="1.0" encoding="iso-8859-1"?>
<!-- Generator: Adobe Illustrator 19.0.0, SVG Export Plug-In . SVG Version: 6.00 Build 0)  -->
<svg xmlns="http://www.w3.org/2000/svg" xmlns:xlink="http://www.w3.org/1999/xlink" version="1.1" id="Capa_1" x="0px" y="0px" viewBox="0 0 512 512" style="enable-background:new 0 0 512 512;" xml:space="preserve" width="512" height="512">
<g>
	<path d="M0,41.187c0,7.281,2.01,14.461,5.82,20.761l20.83,34.532l50.36,83.446l150.97,250.218c0.01,0.02,0.02,0.03,0.03,0.05   l27.95,46.313C269.17,498.399,293.7,512,319.98,512h121.56c38.85,0,70.46-30.482,70.46-67.945c0-8.221-3.31-15.921-9.33-21.702   c-5.92-5.66-13.74-8.771-22.03-8.771h-145.1c-11.71,0-22.6-5.98-28.41-15.601l-4.78-7.94l-28.65-47.464L149.51,136.754   L99.15,53.298v-0.01c-0.03-0.04-0.05-0.09-0.09-0.13L79.29,20.385C67.58,0.964,41.64-5.766,21.47,5.384   C8.23,12.685,0,26.406,0,41.187z M275.71,470.097l20.56-53.484c9.89,10.651,24.18,16.971,39.27,16.971h145.1   c3.12,0,6.03,1.14,8.19,3.22c2.04,1.95,3.17,4.53,3.17,7.25c0,2.63-0.22,5.21-0.66,7.731h-82.91c-5.52,0-10,4.47-10,10.001   c0,5.52,4.48,10.001,10,10.001h74.25c-9.16,12.221-24.19,20.211-41.14,20.211H319.98C302.31,491.999,285.76,483.708,275.71,470.097   z M247.62,423.974l19.7-53.274l15.38,25.482v0.01l-20.18,52.474L247.62,423.974z M99.34,178.217l38.18-22.632l116.57,193.214   l-19.69,53.264L99.34,178.217z M48.98,94.771l38.17-22.642l40.03,66.335l-38.17,22.632L48.98,94.771z M20,41.187   c0-7.491,4.27-14.501,11.13-18.291c10.89-6.02,24.81-2.51,31.04,7.821l14.65,24.282L38.65,77.649L22.94,51.608   C21.02,48.427,20,44.827,20,41.187z"/>
	<path d="M373.411,471.784c5.522,0,10.005-4.478,10.005-10.001s-4.473-10.001-9.995-10.001h-0.01c-5.523,0-10,4.478-10,10.001   S367.888,471.784,373.411,471.784z"/>
	<path d="M0.25,414.863c0,0.19-0.01,0.38-0.01,0.57v57.274c0,32.84,54.527,38.297,77.516,38.609   c23.573,0.32,82.484-4.161,82.484-38.609v-57.274c0-32.849-54.52-38.298-77.516-38.609C59.128,376.504,1.066,380.854,0.25,414.863   C0.25,415.053,0.85,389.862,0.25,414.863z M140.24,415.473c-0.007,0.279-0.057,0.549-0.15,0.81c-0.104,0.327-0.244,0.637-0.42,0.93   c-0.569,0.896-1.243,1.696-2.02,2.4c-0.05,0.06-0.12,0.11-0.18,0.17c-0.1,0.09-0.2,0.18-0.3,0.26   c-6.315,5.81-16.195,8.721-24.33,10.531c-23.718,6.202-52.866,5.38-75.865-3.281c-9.264-3.489-23.19-9.712-10.978-18.38   c18.845-13.376,49.013-13.602,70.754-11.262c7.392,0.795,43.489,5.216,43.489,17.782V415.473z M20.24,441.815   c29.871,15.719,73.514,16.832,105.65,5.83c4.941-1.492,9.769-3.467,14.35-5.84v30.902c0,5.983-12.654,10.321-16.731,11.865   c-13.641,5.168-28.782,6.792-43.269,6.776c-14.956-0.016-30.594-1.682-44.586-7.296c-3.878-1.556-15.414-5.691-15.414-11.346   V441.815z"/>
</g>















</svg>
